<svg xmlns="http://www.w3.org/2000/svg" width="40" height="40" viewBox="0 0 40 40"><g><g><g/><g><path class="social-icon" fill="#fff" fill-opacity=".5" d="M23.826 19.998a3.828 3.828 0 1 1-7.656 0 3.828 3.828 0 0 1 7.656 0z"/></g><g><path fill="#fff" fill-opacity=".5" d="M29.343 15.364c.056 1.211.067 1.575.067 4.641 0 3.067-.011 3.43-.067 4.641-.05 1.12-.238 1.728-.395 2.132a3.803 3.803 0 0 1-2.18 2.18c-.404.157-1.013.345-2.132.395-1.21.056-1.574.067-4.641.067s-3.43-.011-4.64-.067c-1.12-.05-1.728-.238-2.133-.395a3.556 3.556 0 0 1-1.32-.86 3.56 3.56 0 0 1-.86-1.32c-.157-.404-.344-1.012-.395-2.132-.055-1.211-.067-1.574-.067-4.64 0-3.067.012-3.43.067-4.642.051-1.12.238-1.727.395-2.132a3.56 3.56 0 0 1 .86-1.32c.37-.382.821-.676 1.32-.86.405-.157 1.013-.344 2.132-.395 1.211-.055 1.575-.067 4.641-.067 3.067 0 3.43.012 4.641.067 1.12.051 1.728.238 2.132.395.5.184.95.478 1.32.86.382.37.676.821.86 1.32.157.405.344 1.013.395 2.132zm-3.45 4.641a5.897 5.897 0 1 0-11.795 0 5.897 5.897 0 0 0 11.794 0zm1.61-6.13a1.378 1.378 0 1 0-2.756 0 1.378 1.378 0 0 0 2.757 0z"/></g><g><path fill="#fff" fill-opacity=".5" d="M40 20c0 11.044-8.956 20-20 20S0 31.044 0 20 8.956 0 20 0s20 8.956 20 20zm-8.516 0c0-3.119-.013-3.51-.069-4.735-.055-1.222-.25-2.057-.534-2.788a5.626 5.626 0 0 0-1.324-2.034 5.63 5.63 0 0 0-2.034-1.325c-.731-.283-1.566-.477-2.788-.533-1.225-.056-1.616-.07-4.735-.07s-3.51.014-4.735.07c-1.222.056-2.057.25-2.788.534-.766.288-1.46.74-2.034 1.324a5.626 5.626 0 0 0-1.325 2.034c-.283.731-.478 1.566-.533 2.788-.056 1.225-.07 1.616-.07 4.735s.014 3.51.07 4.735c.056 1.222.25 2.057.534 2.788.288.766.74 1.46 1.324 2.034a5.626 5.626 0 0 0 2.035 1.324c.73.284 1.565.478 2.787.534 1.225.056 1.616.07 4.735.07 3.12 0 3.51-.014 4.735-.07 1.222-.056 2.057-.25 2.788-.534a5.872 5.872 0 0 0 3.358-3.358c.284-.731.479-1.566.534-2.788.056-1.225.07-1.616.07-4.735z"/></g></g></g></svg>